#define elico_width 40
#define elico_height 40
static unsigned short elico_bits[] = {
   0x0000, 0x0000, 0x0000, 0x0000, 0x0000, 0x0000, 0x0000, 0x0000, 0x0000,
   0x0000, 0x0000, 0x0000, 0x0000, 0x0000, 0x0000, 0x0000, 0x0000, 0x0000,
   0x0000, 0x0000, 0x0000, 0x0000, 0x0000, 0x0000, 0x0000, 0x0000, 0x0000,
   0x0000, 0x0000, 0x0000, 0xa000, 0x0000, 0x0000, 0xfff8, 0xff07, 0x003f,
   0xfff8, 0xff83, 0x003f, 0xfff8, 0xffc1, 0x003f, 0x5bf8, 0xff40, 0x000b,
   0x0078, 0x1e00, 0x0000, 0x0078, 0x1e00, 0x0000, 0x0078, 0x1e00, 0x0000,
   0x0078, 0x1e00, 0x0000, 0x7ff8, 0x1e00, 0x0000, 0x7ff8, 0x1e00, 0x0000,
   0x7ff8, 0x1e00, 0x0000, 0x7ff8, 0x1e00, 0x0000, 0x0078, 0x1e00, 0x0000,
   0x0078, 0x1e00, 0x0000, 0x0078, 0x1e00, 0x0000, 0x0078, 0x1e00, 0x0000,
   0x5578, 0x1e05, 0x0000, 0xfff8, 0x1c1f, 0x0000, 0xfff8, 0x103f, 0x0000,
   0xfff8, 0x007f, 0x0000, 0x0000, 0x0000, 0x0000, 0x0000, 0x0000, 0x0000,
   0x0000, 0x0000, 0x0000, 0x0000, 0x0000, 0x0000, 0x0000, 0x0000, 0x0000,
   0x0000, 0x0000, 0x0000, 0x0000, 0x0000, 0x0000, 0x0000, 0x0000, 0x0000,
   0x0000, 0x0000, 0x0000 };
